<?xml version="1.0" encoding="UTF-8" standalone="no"?>
<svg
   xmlns:dc="http://purl.org/dc/elements/1.1/"
   xmlns:cc="http://creativecommons.org/ns#"
   xmlns:rdf="http://www.w3.org/1999/02/22-rdf-syntax-ns#"
   xmlns:svg="http://www.w3.org/2000/svg"
   xmlns="http://www.w3.org/2000/svg"
   xmlns:sodipodi="http://sodipodi.sourceforge.net/DTD/sodipodi-0.dtd"
   xmlns:inkscape="http://www.inkscape.org/namespaces/inkscape"
   width="210mm"
   height="297mm"
   viewBox="0 0 210 297"
   version="1.1"
   id="svg468"
   inkscape:version="1.0.2 (e86c870879, 2021-01-15)"
   sodipodi:docname="dodo-running-with-gecko-plush.svg">
  <defs
     id="defs462" />
  <sodipodi:namedview
     id="base"
     pagecolor="#ffffff"
     bordercolor="#666666"
     borderopacity="1.0"
     inkscape:pageopacity="0.0"
     inkscape:pageshadow="2"
     inkscape:zoom="0.49497475"
     inkscape:cx="-152.60337"
     inkscape:cy="393.0905"
     inkscape:document-units="mm"
     inkscape:current-layer="layer1"
     inkscape:document-rotation="0"
     showgrid="false"
     inkscape:window-width="1514"
     inkscape:window-height="1016"
     inkscape:window-x="50"
     inkscape:window-y="27"
     inkscape:window-maximized="0" />
  <metadata
     id="metadata465">
    <rdf:RDF>
      <cc:Work
         rdf:about="">
        <dc:format>image/svg+xml</dc:format>
        <dc:type
           rdf:resource="http://purl.org/dc/dcmitype/StillImage" />
        <dc:title></dc:title>
      </cc:Work>
    </rdf:RDF>
  </metadata>
  <g
     inkscape:label="Layer 1"
     inkscape:groupmode="layer"
     id="layer1">
    <path
       d="m 86.963884,181.00218 c -2.418925,-3.35267 -4.909328,-2.70597 -4.909328,-2.70597 0,0 -4.693303,0.42064 -6.169611,4.6964 -1.475743,4.27547 1.237826,8.03138 1.237826,8.03138 4.964392,4.97646 7.067077,1.76257 7.454354,0.72934 0.38728,-1.03324 -4.779905,-4.42909 -4.779905,-4.42909 0,0 -3.719852,-3.05088 -1.175052,-5.38889 2.541909,-2.34373 8.454521,-0.52922 8.454521,-0.52922 l 0.986712,1.10987 c -0.911214,-0.54474 -7.546786,-2.58708 -9.544249,-0.0643 -2.000357,2.51709 1.932888,5.26883 5.101613,7.58739 3.169285,2.31826 -0.975543,3.82689 -0.975543,3.82689 -9.368854,-0.38265 -7.0821,-10.43097 -7.0821,-10.43097 0,0 1.254343,-4.77472 6.165808,-5.24393 4.91145,-0.46924 5.721282,3.29515 5.721282,3.29515 z"
       style="fill:#e6e6e6;stroke:#231f20;stroke-width:0.489081;stroke-linecap:round;stroke-linejoin:round;stroke-miterlimit:10;stroke-dasharray:none;stroke-opacity:1"
       id="path436"
       inkscape:export-xdpi="96"
       inkscape:export-ydpi="96"
       sodipodi:nodetypes="ccccsccccccccscc" />
    <path
       style="fill:#ffffff;stroke-width:0.280188"
       d="m 81.595435,193.48407 c -1.12583,-0.0874 -3.183218,-1.10482 -4.418121,-2.43222 -1.560537,-1.67745 -1.826178,-6.01753 -0.967271,-8.52849 0.732755,-2.14215 3.814802,-3.78423 6.250991,-4.16477 0.622707,-0.0972 2.214757,0.3476 3.298087,1.15424 0.820719,0.61109 1.344722,1.46532 1.661888,1.79132 0.442167,0.45449 1.103985,0.96515 0.423458,0.85694 -0.363638,-0.0579 -1.847895,-0.72467 -2.483436,-0.80321 -2.117779,-0.2618 -5.592451,-0.58967 -6.649136,0.2439 -0.427724,0.33752 -0.790388,0.7252 -0.982185,1.33603 -0.329895,1.05079 -0.417024,1.18309 0.432127,2.56643 0.660121,1.07538 1.557413,1.88068 3.233465,3.18428 3.180352,2.47362 3.507328,2.70357 2.867703,3.61868 -0.68459,0.97954 -1.449028,1.27133 -2.66757,1.17687 z"
       id="path970"
       inkscape:export-xdpi="96"
       inkscape:export-ydpi="96"
       sodipodi:nodetypes="cscssssscssscc" />
    <path
       d="m 80.842742,154.48862 c 6.246358,23.76733 -12.619721,45.0927 -12.619721,45.0927 30.68528,1.90893 28.637798,-31.36649 28.637798,-31.36649 l -0.777427,0.69275 c 0,0 0.669665,27.90271 -24.335008,28.60316 0,0 16.260543,-20.41323 9.036628,-43.60172"
       style="fill:#231f20;fill-opacity:1;fill-rule:nonzero;stroke:none;stroke-width:0.0352777"
       id="path720" />
    <path
       d="m 83.30203,52.056428 c 0,0 10.941708,-16.90133 35.44223,-9.56427 0,0 7.59724,-11.5294 15.85258,-12.51234 0,0 -8.32078,14.54328 -9.23675,31.64088 -0.91597,17.09802 0.65428,23.25586 0.65428,23.25586 l 5.63442,3.2752 c 0,0 -0.78513,7.33707 2.49007,13.626142 3.27519,6.2887 2.88264,10.35018 2.42464,11.59522 -0.45797,1.24426 -5.37271,11.66025 -19.65504,5.43698 -14.27851,-6.22326 -22.010453,-14.08451 -22.010453,-14.08451 0,0 -16.572281,-15.132512 -17.753816,-32.164712 0,0 -1.76653,-9.30218 6.026984,-20.17692 l 0.130855,-0.32753"
       style="fill:#f3c7a3;fill-opacity:1;fill-rule:nonzero;stroke:none;stroke-width:0.0352777"
       id="path614" />
    <path
       d="m 140.42754,200.56657 c -3.27518,11.13414 -10.74157,14.27849 -10.74157,14.27849 l -2.68636,-1.57025 -6.88138,0.98141 1.50868,4.12575 -2.29379,0.46183 -2.02825,3.14435 c -12.45038,13.1008 -38.390301,15.06746 -38.390301,15.06746 l 0.457989,-5.17643 -5.438141,1.17768 -0.327135,-3.20977 -4.387459,2.29379 0.588843,-10.0873 c -19.389494,-10.15659 -12.90452,-41.01121 -12.90452,-41.01121 0,0 8.778768,-22.66469 14.478617,-23.84237 5.696001,-1.18077 12.381105,-3.2117 12.381105,-3.2117 0,0 6.354118,-2.29264 16.768562,-1.83427 10.41447,0.45876 7.47026,-12.51234 7.47026,-12.51234 C 104.52735,122.87158 98.369489,119.0722 83.69844,110.16296 69.023541,101.25372 65.159497,89.855168 65.159497,89.855168 c -3.340627,-19.12856 -2.62093,-21.68367 3.209774,-33.60603 5.830704,-11.92271 18.408088,-16.37714 18.408088,-16.37714 15.132891,-7.33708 26.594191,0.58922 26.594191,0.58922 0,0 -8.90963,-0.58922 -14.871206,1.638 -5.961559,2.22721 -13.231655,4.38898 -18.473516,15.65669 -5.238011,11.26729 -3.798617,19.12855 2.032087,30.52709 5.830704,11.39854 20.243905,22.731662 27.448595,26.793142 7.20467,4.06148 16.63769,5.30614 16.63769,5.30614 0,0 -2.61707,2.68597 -6.35411,3.53729 0,0 1.50869,16.05002 7.47025,28.8895 5.96153,12.83871 15.46,33.01717 14.47475,40.22185 -0.98141,7.20852 -1.30855,7.53565 -1.30855,7.53565"
       style="fill:#3275ba;fill-opacity:1;fill-rule:nonzero;stroke:none;stroke-width:0.0352777"
       id="path616" />
    <path
       d="m 71.348124,223.00035 c 0,0 7.993645,3.67161 24.304219,0.52726 16.310607,-3.14435 20.994397,-0.29635 20.994397,-0.29635 0,0 -17.326635,11.95391 -36.323566,11.82306 l 1.373968,-5.63058 -6.615826,1.83196 0.06542,-4.25661 -4.322032,2.22452 c 0,0 0.130855,-6.68125 0.523415,-6.22326"
       style="fill:#2d63b8;fill-opacity:1;fill-rule:nonzero;stroke:none;stroke-width:0.0352777"
       id="path618" />
    <path
       d="m 129.15872,156.80358 c 0,0 8.25533,-7.07343 16.90324,-4.91126 0,0 -7.47022,17.29236 0.78514,28.10322 l -5.27265,4.81466 -12.41573,-28.00662"
       style="fill:#2d63b8;fill-opacity:1;fill-rule:nonzero;stroke:none;stroke-width:0.0352777"
       id="path620" />
    <path
       d="m 70.459088,232.89522 c 0,0 -4.930121,8.46703 -13.266293,5.36887 -5.996195,-2.22453 -13.593428,-8.02443 -13.593428,-8.02443 -0.361774,-3.79862 -2.390011,-4.35668 -2.390011,-4.35668 -3.867894,-1.7011 -5.634424,1.8666 -5.634424,1.8666 0,0 -4.618377,0.20013 -5.46893,2.85185 0,0 -0.165491,0.55805 0.750487,0.62348 0.915979,0.0654 6.09241,1.89738 7.20852,3.60234 0,0 -3.440693,-0.23092 -3.309838,0.61963 0,0 -0.754336,6.55425 -1.046832,8.61712 -0.296347,2.06288 -1.11611,5.04173 -4.160391,6.81211 -3.04813,1.77038 -3.933318,1.80117 -3.933318,1.80117 0,0 -6.385294,2.75178 -4.845836,5.04557 0,0 0.491857,1.67032 7.401337,-1.73573 0,0 10.056522,-2.721 11.499764,-12.35032 0,0 0.06543,7.43559 -8.089859,11.98854 0,0 -5.407353,4.4221 -2.62093,7.66651 0,0 0.785123,1.47404 7.858941,-4.45673 7.077666,-5.92693 7.435589,-12.57739 7.435589,-12.57739 0,0 0.85055,7.07382 -2.751784,11.00713 -3.602337,3.92948 -2.717145,3.79863 -2.717145,3.79863 0,0 1.016043,1.9628 1.93202,0.62347 0.91598,-1.34317 6.188628,-6.78131 6.223266,-8.51706 0.03464,-1.73573 1.081471,-13.85513 1.081471,-13.85513 h 0.19628 c 0,0 12.84679,6.87753 21.329214,0.61963 l 8.155287,-3.9949 0.100064,-2.22837 -5.503566,1.63953 -0.06543,-3.20978 -1.774228,0.75434"
       style="fill:#f3c7a3;fill-opacity:1;fill-rule:nonzero;stroke:none;stroke-width:0.0352777"
       id="path622" />
    <path
       d="m 30.240704,188.18547 c 0,0 -2.424649,-0.0654 -0.981404,-3.27521 1.439394,-3.20977 6.09241,-13.88977 18.408088,-11.00713 0,0 3.078919,5.43814 9.236758,7.13924 0,0 -1.443245,6.09241 -0.785125,16.11814 0,0 -2.620929,0.39256 -5.634421,4.19119 -3.013495,3.79861 -3.929472,4.98014 -4.849299,7.40095 -0.915978,2.42464 -3.406055,8.25535 -3.406055,8.25535 0,0 -1.831956,2.16294 -4.125751,-2.09751 -2.293794,-4.25661 -3.013492,-11.72299 -3.013492,-11.72299 0,0 -0.719697,-0.46184 -2.817211,1.76653 -2.097515,2.22837 -2.42465,1.70495 -2.42465,1.70495 0,0 -2.817209,-0.59269 -1.831957,-8.05907 0.981407,-7.46638 2.87879,-10.08731 2.87879,-10.08731 l -0.654271,-0.32713"
       style="fill:#578dd1;fill-opacity:1;fill-rule:nonzero;stroke:none;stroke-width:0.0352777"
       id="path624" />
    <path
       d="m 154.5136,144.55526 2.55166,-1.24465 c 6.02698,-2.88265 7.14308,5.17489 7.14308,5.17489 0.58886,5.63403 -5.56898,7.86125 -4.06415,7.66497 1.50866,-0.19667 3.4099,2.94691 3.4099,2.94691 2.4208,5.04558 -5.30728,11.59598 -5.30728,11.59598 3.14432,0.65427 2.49007,5.37271 2.35921,6.68125 -0.13086,1.31239 -4.26045,7.13925 -11.26885,8.64791 -7.00838,1.50483 -7.20466,4.51832 -7.20466,4.51832 l -1.63953,-7.66266 c -1.37397,-6.02699 1.37781,-13.23165 1.37781,-13.23165 -5.83071,-8.05908 3.79862,-18.40963 3.79862,-18.40963 -4.26046,-1.50675 -11.13798,1.63798 -11.13798,1.63798 0,0 4.06031,-8.51629 7.00838,-21.7491 2.94807,-13.23281 2.86212,-16.19369 2.86212,-16.19369 0,0 8.99557,-5.55541 12.46705,7.74321 0,0 2.62094,7.66459 -2.42079,20.43864 l 0.0654,1.44132"
       style="fill:#578dd1;fill-opacity:1;fill-rule:nonzero;stroke:none;stroke-width:0.0352777"
       id="path626"
       sodipodi:nodetypes="cccccccccccccscccc" />
    <path
       d="m 140.88554,193.83528 c -0.14625,12.52735 -10.15274,19.8167 -10.15274,19.8167 l 1.13152,0.53881 c 9.18672,-6.2887 9.87177,-16.1143 10.61071,-21.76411 0.73508,-5.64982 -3.68315,-18.2272 -12.48118,-36.40745 -8.79416,-18.17871 -8.99043,-31.3461 -8.99043,-31.3461 2.65557,-0.54034 7.12386,-3.09546 7.12386,-3.09546 0,0 -3.39068,0.29519 -5.84612,-0.14702 0,0 -1.17766,1.2281 -3.78321,1.76846 0,0 1.1315,18.12983 9.67936,35.17857 0,0 13.46256,24.81224 12.72362,35.27671 l -0.0154,0.18089"
       style="fill:#120c13;fill-opacity:1;fill-rule:nonzero;stroke:none;stroke-width:0.0352777"
       id="path628" />
    <path
       d="m 133.77709,153.36597 c 5.26748,-10.20554 6.89336,-18.31801 7.91569,-24.57672 1.74369,-10.67465 0.11822,-15.82621 0.11822,-15.82621 0,0 20.36526,-4.60163 16.43581,19.96429 0,0 -1.08147,6.75554 -2.85185,10.19469 l -2.15911,1.20385 c 2.35539,-5.69946 3.14435,-13.16737 3.14435,-13.16737 2.35538,-17.2943 -11.97827,-16.22641 -11.97827,-16.22641 0,0 3.9192,13.37687 -9.44331,36.86171 l -1.18153,1.57217"
       style="fill:#120c13;fill-opacity:1;fill-rule:nonzero;stroke:none;stroke-width:0.0352777"
       id="path630"
       sodipodi:nodetypes="cscccccccc" />
    <path
       d="m 129.99385,156.01923 c 0,0 7.76273,-7.17312 16.21436,-5.45354 l -1.12763,1.22811 c 0,0 -6.56195,-2.08828 -14.8635,4.74153 l -0.22323,-0.5161"
       style="fill:#120c13;fill-opacity:1;fill-rule:nonzero;stroke:none;stroke-width:0.0352777"
       id="path632" />
    <path
       d="m 164.86262,163.09612 c 0,0 0.0308,-7.73194 -4.71843,-8.38735 -4.74923,-0.65466 -10.7416,3.63427 -16.4068,11.26614 -5.66906,7.63187 -3.80246,13.43179 -3.80246,13.43179 l 0.78897,2.35922 c 0,0 -0.62347,-6.55425 1.43938,-10.05652 2.06289,-3.50612 9.43306,-14.60947 17.81927,-14.34776 0,0 4.78002,1.31238 1.93202,7.53565 0,0 -2.12832,3.89483 -3.89868,4.55296 l 1.73572,1.04683 c 0,0 4.48754,-3.30984 5.07637,-7.10846"
       style="fill:#120c13;fill-opacity:1;fill-rule:nonzero;stroke:none;stroke-width:0.0352777"
       id="path634" />
    <path
       d="m 113.63325,47.438058 2.4593,-10.31746 4.71459,1.57216 0.78513,0.39297 -0.7351,1.42474 -2.50547,0.0985 -4.71845,6.82906"
       style="fill:#0a0b0c;fill-opacity:1;fill-rule:nonzero;stroke:none;stroke-width:0.0352777"
       id="path636" />
    <path
       d="m 82.436083,46.995838 7.466379,-9.1875 13.216278,11.05449 -13.166245,-5.55167 -7.516412,3.68468"
       style="fill:#0a0b0c;fill-opacity:1;fill-rule:nonzero;stroke:none;stroke-width:0.0352777"
       id="path638" />
    <path
       d="m 105.08541,72.593598 c 0,0 5.30729,0.58961 7.46637,-10.51413 2.16294,-11.10373 6.29256,-31.83718 26.33632,-34.88339 20.04759,-3.04621 30.85461,11.49668 30.85461,11.49668 0,0 15.03284,17.39283 5.69985,42.0565 0,0 -14.44398,34.883782 -24.666,19.750892 0,0 -0.88133,-5.993892 -8.15528,-7.566062 -7.27008,-1.57217 -13.26628,-3.43915 -17.48827,-7.95939 0,0 -5.27648,-32.52494 7.30089,-52.96395 0,0 -9.69474,3.40644 -14.67105,16.11505 0,0 -2.49008,8.38506 -3.14433,10.35056 -0.65813,1.96512 -3.73704,15.00165 -9.53311,14.11724"
       style="fill:#0b0a0b;fill-opacity:1;fill-rule:nonzero;stroke:none;stroke-width:0.0352777"
       id="path640" />
    <path
       d="m 125.13301,84.974698 c 0,0 -1.73574,-36.19348 11.36507,-54.92907 0,0 16.376,-11.0056 33.27927,10.35018 16.89941,21.35614 -5.24187,53.9796 -5.24187,53.9796 0,0 -7.73192,10.219322 -10.34902,6.682032 -2.62091,-3.537692 -2.09749,-8.516302 -10.48371,-9.826772 -8.38619,-1.31007 -15.918,-3.20976 -18.56974,-6.25597"
       style="fill:#343232;fill-opacity:1;fill-rule:nonzero;stroke:none;stroke-width:0.0352777"
       id="path642" />
    <path
       d="m 127.32675,71.184988 c 0,0 9.43305,10.48141 23.84623,9.82637 0,0 9.69474,3.66853 4.19117,18.60437 0,0 -2.35921,-9.04009 -9.95644,-10.21893 -7.60108,-1.17923 -14.54405,-1.57256 -18.73523,-5.10985 0,0 -1.05069,-15.32918 0.65427,-13.10196"
       style="fill:#2b2325;fill-opacity:1;fill-rule:nonzero;stroke:none;stroke-width:0.0352777"
       id="path644" />
    <path
       d="m 170.10449,84.221128 c 2.75179,-23.58298 -4.52218,-35.1778 -4.52218,-35.1778 -12.83909,-22.0112 -28.56081,-18.21182 -28.56081,-18.21182 0,0 11.26884,-7.07459 25.54732,5.50281 14.28234,12.57776 11.53057,32.09927 11.53057,32.09927 0,0 -0.71969,8.18877 -3.60235,14.34661 l -0.39255,1.44093"
       style="fill:#4f4c4c;fill-opacity:1;fill-rule:nonzero;stroke:none;stroke-width:0.0352777"
       id="path646" />
    <path
       d="m 118.59801,45.931308 c 6.1155,-11.87654 13.83589,-13.92056 13.83589,-13.92056 l -2.09366,3.73396 c -5.01095,2.65324 -7.76272,8.05753 -13.07001,24.27111 -5.30728,16.21359 -11.69219,12.82332 -11.69219,12.82332 0,0 4.32203,0.49147 7.90896,-10.95633 3.58696,-11.44782 4.27585,-14.33005 5.11101,-15.9515"
       style="fill:#fcd6bd;fill-opacity:1;fill-rule:nonzero;stroke:none;stroke-width:0.0352777"
       id="path648" />
    <path
       d="m 96.472107,77.474068 c 0,1.77269 -2.08212,3.20977 -4.653018,3.20977 -2.56705,0 -4.649167,-1.43708 -4.649167,-3.20977 0,-1.77307 2.082117,-3.21016 4.649167,-3.21016 2.570898,0 4.653018,1.43709 4.653018,3.21016"
       style="fill:#fcd6bd;fill-opacity:1;fill-rule:nonzero;stroke:none;stroke-width:0.0352777"
       id="path650" />
    <path
       d="m 100.00901,78.391198 c 0,0 1.57026,4.97861 -2.49007,8.71257 0,0 7.07384,-3.99605 2.49007,-8.71257"
       style="fill:#190c0c;fill-opacity:1;fill-rule:nonzero;stroke:none;stroke-width:0.0352777"
       id="path652" />
    <path
       d="m 101.57927,81.993918 c 0,0 16.51071,0.78628 23.32283,2.09636 l 0.32713,1.11379 c 0,0 2.55552,2.16179 3.79863,2.94769 0,0 -0.98142,6.6166 0.85439,10.87474 0,0 10.34902,16.442592 -6.68509,14.935852 0,0 -8.03983,-0.73702 -19.1278,-18.538952 0,0 -3.27522,-5.04443 -4.910896,-9.56428 0,0 1.831956,-1.04799 2.420806,-3.8652"
       style="fill:#0b0a0b;fill-opacity:1;fill-rule:nonzero;stroke:none;stroke-width:0.0352777"
       id="path654" />
    <path
       d="m 122.43511,112.56221 c 16.21821,2.84223 6.7005,-14.690312 6.7005,-14.690312 -6.30792,-7.51717 -10.54913,-2.80065 -10.54913,-2.80065 -8.17455,-7.32052 -13.90133,-1.47404 -13.90133,-1.47404 0,0 8.49782,17.343562 17.74996,18.965002"
       style="fill:#ec3847;fill-opacity:1;fill-rule:nonzero;stroke:none;stroke-width:0.0352777"
       id="path656" />
    <path
       d="m 111.58962,91.582828 c 0,0 9.67166,1.37589 13.80511,14.248092 0,0 -2.20527,-13.707362 -13.80511,-14.248092"
       style="fill:#0b0a0b;fill-opacity:1;fill-rule:nonzero;stroke:none;stroke-width:0.0352777"
       id="path658" />
    <path
       d="m 132.30305,104.67632 c 2.65557,9.08974 -4.61838,9.28603 -4.61838,9.28603 -6.23865,1.08108 -10.95324,-3.24249 -10.95324,-3.24249 C 105.47797,101.38495 99.3355,85.859118 99.3355,85.859118 l -0.488777,0.54035 c 0,0 6.731317,31.689792 28.938027,29.429852 0,0 7.27009,-1.08069 5.30728,-10.02265 0,0 -3.19437,-6.534622 -3.53692,-9.040102 -0.34636,-2.50585 -0.39639,-8.45086 -0.39639,-8.45086 0,0 -1.25852,5.3554 0.72353,10.71079 0,0 2.09368,3.963352 2.3246,5.470092 l 0.0962,0.17973"
       style="fill:#fcd6bd;fill-opacity:1;fill-rule:nonzero;stroke:none;stroke-width:0.0352777"
       id="path660" />
    <path
       d="m 138.19919,111.50614 c 0,0 -1.67033,11.79149 -15.52545,9.92451 -13.85514,-1.86698 -20.43635,-16.60653 -20.43635,-16.60653 3.34065,5.50279 9.62934,9.82598 9.62934,9.82598 16.60691,10.31784 22.99183,-0.68775 22.99183,-0.68775 0,0 1.86661,-5.40428 -1.17769,-10.61227 -3.04813,-5.208002 -2.45544,-13.855142 -2.45544,-13.855142 l 1.1777,0.2948 c 0,0 -0.39256,4.81466 2.65171,10.612272 3.04813,5.79761 3.14435,11.10413 3.14435,11.10413"
       style="fill:#0b0a0b;fill-opacity:1;fill-rule:nonzero;stroke:none;stroke-width:0.0352777"
       id="path662" />
    <path
       d="m 87.593273,40.166808 c 0,0 -19.354857,9.43302 -19.454921,29.77391 0,0 -2.717145,22.86213 18.473516,34.391922 20.474842,11.13876 28.399212,24.66407 24.666022,44.022 0,0 0.65426,-18.40809 -13.693525,-30.65834 0,0 -7.204671,-6.74707 -13.55879,-9.43303 C 77.671456,105.5773 69.93952,97.912698 67.449443,91.099818 c 0,0 -7.20467,-13.82242 -0.457989,-30.19959 6.746683,-16.37713 20.601819,-20.73342 20.601819,-20.73342"
       style="fill:#6dace2;fill-opacity:1;fill-rule:nonzero;stroke:none;stroke-width:0.0352777"
       id="path664" />
    <path
       d="m 67.842006,221.19918 c 0,0 0.723545,7.53565 -0.719697,13.03922 l 5.111006,-2.09752 0.06543,3.20978 5.503566,-1.63953 -0.06542,3.20978 2.355372,-0.19628 1.704952,-7.20467 -6.615829,1.8358 0.06543,-4.26045 -4.325881,2.22836 0.330982,-6.61582 -3.409901,-1.50867"
       style="fill:#120c13;fill-opacity:1;fill-rule:nonzero;stroke:none;stroke-width:0.0352777"
       id="path666" />
    <path
       d="m 48.190803,239.28013 c 0,0 0.623481,9.5331 0.588845,12.08861 -0.03079,2.55165 -0.09622,2.91342 -0.09622,2.91342 0,0 -5.307286,9.23676 -7.762724,10.51452 -2.459288,1.27774 -4.587591,-3.47149 -4.587591,-3.47149 -6.157839,5.86149 -7.239307,5.1418 -7.239307,5.1418 -5.303439,-0.78513 -2.128304,-8.97505 -2.128304,-8.97505 -6.321021,3.17898 -7.336295,1.44324 -7.336295,1.44324 -2.1945,-3.80246 2.718684,-6.84674 2.718684,-6.84674 7.042261,-3.0135 7.369396,-4.39132 8.285373,-5.63443 0.919827,-1.24311 1.704952,-12.41189 1.704952,-12.41189 -0.919827,-0.46184 -3.59464,-0.42335 -5.2688,-0.35023 -0.719698,0.0346 -1.243115,-0.67351 -1.004499,-1.35473 2.028239,-5.8153 7.058424,-5.50356 7.058424,-5.50356 0,0 1.639524,-5.43814 8.320778,-3.9949 0,0 4.452886,1.30854 4.980151,6.02698 0,0 9.563893,7.56645 15.098251,7.59724 0,0 4.422098,0.0346 6.157838,-5.43429 0,0 -0.130853,1.37396 -0.558053,3.20977 l 3.309838,-1.37782 c 0,0 -4.930118,8.47088 -13.266294,5.37272 -5.992347,-2.22837 -13.593428,-8.02443 -13.593428,-8.02443 -0.361773,-3.79862 -2.390011,-4.35668 -2.390011,-4.35668 -3.864044,-1.70495 -5.634421,1.8666 -5.634421,1.8666 0,0 -4.61838,0.19628 -5.468932,2.848 0,0 -0.165492,0.55806 0.750488,0.62348 0.919827,0.0654 6.092412,1.90123 7.208519,3.60234 0,0 -3.440693,-0.22707 -3.309838,0.62348 0,0 -0.754336,6.5504 -1.046833,8.61328 -0.296346,2.06287 -1.112259,5.04557 -4.16039,6.8121 -3.044281,1.77038 -3.929469,1.80502 -3.929469,1.80502 0,0 -6.387988,2.74793 -4.848529,5.04173 0,0 0.491087,1.67031 7.404031,-1.73574 0,0 10.052671,-2.71715 11.495913,-12.34647 0,0 0.06543,7.43559 -8.089859,11.98855 0,0 -5.407352,4.41824 -2.620929,7.66265 0,0 0.785125,1.47404 7.85894,-4.45288 7.077666,-5.93077 7.43559,-12.58124 7.43559,-12.58124 0,0 0.854399,7.07767 -2.751784,11.00714 -3.602334,3.92947 -2.717146,3.79862 -2.717146,3.79862 0,0 1.016044,1.96665 1.932021,0.62348 0.91598,-1.34318 6.192477,-6.78133 6.223266,-8.51706 0.03464,-1.73575 1.081471,-13.85514 1.081471,-13.85514 h 0.19628"
       style="fill:#120c13;fill-opacity:1;fill-rule:nonzero;stroke:none;stroke-width:0.0352777"
       id="path668" />
    <path
       d="m 77.702245,235.9395 c 0,0 -0.785125,0.10006 -10.28359,5.07637 -9.498466,4.98015 -22.175917,-3.60233 -22.175917,-3.60233 0,0 11.561342,9.99109 23.157321,4.94551 l 8.713341,-3.96411 c 0,0 26.5634,-1.83196 39.53334,-15.16368 0,0 -17.030289,11.98855 -36.223499,11.92312 l -0.330986,1.57025 -2.355371,0.19628 -0.03464,-0.98141"
       style="fill:#120c13;fill-opacity:1;fill-rule:nonzero;stroke:none;stroke-width:0.0352777"
       id="path670" />
    <path
       d="m 105.38175,222.24986 c 6.61584,-0.78897 10.34902,0.65427 11.26499,0.9814 0.91983,0.32714 5.50359,1.50867 5.50359,1.50867 -1.57027,-1.57409 -1.90124,-4.78387 -1.90124,-4.78387 l 3.99873,-0.45799 -2.29379,-4.1296 3.86406,-0.65426 -3.01351,-2.35923 -5.23801,1.05069 1.96282,3.66776 -4.97631,0.91598 1.37397,2.0975 c 0,0 -6.41954,-2.55549 -20.109215,0.91599 -13.693492,3.47148 -22.864823,1.37781 -22.864823,1.37781 -21.094445,-4.84929 -15.132889,-40.22223 -15.132889,-40.22223 l -2.293794,-0.8544 c 0,0 -4.322032,31.83988 12.315677,39.8951 0,0 4.653016,3.99874 16.314423,3.7024"
       style="fill:#120c13;fill-opacity:1;fill-rule:nonzero;stroke:none;stroke-width:0.0352777"
       id="path672" />
    <path
       d="m 35.613418,235.36606 c 0,0 0.196283,14.29772 -6.927566,16.46067 0,0 -7.173113,2.60168 -7.664586,5.20722 0,0 -0.44221,1.5741 4.716519,-0.68891 5.15719,-2.25916 11.3997,-5.06097 11.938509,-9.87564 0.542659,-4.81466 0.442596,-11.15338 0.442596,-11.15338 l -2.505472,0.05"
       style="fill:#ebac92;fill-opacity:1;fill-rule:nonzero;stroke:none;stroke-width:0.0352777"
       id="path674" />
    <path
       d="m 39.889269,245.63425 c 0,0 -1.377817,5.25725 -4.175785,7.66651 -2.801817,2.4054 -3.833255,2.89803 -3.833255,2.89803 0,0 -4.964757,3.48688 -2.605535,6.87753 0,0 1.524064,-0.24631 2.259158,-3.34062 0.73894,-3.09431 9.779417,-2.45544 8.355417,-14.10145"
       style="fill:#ebac92;fill-opacity:1;fill-rule:nonzero;stroke:none;stroke-width:0.0352777"
       id="path676" />
    <path
       d="m 45.388988,246.86197 c 0,0 -0.488779,1.62413 -1.031438,4.81851 -0.538812,3.19052 -2.855698,5.58438 -2.855698,5.58438 0,0 -4.4144,4.14116 -1.662616,4.4375 0,0 1.816563,-2.65557 3.240563,-4.32588 1.427848,-1.67032 3.933319,-4.272 2.948064,-8.79416 l -0.638875,-1.72035"
       style="fill:#ebac92;fill-opacity:1;fill-rule:nonzero;stroke:none;stroke-width:0.0352777"
       id="path678" />
    <path
       d="m 155.00237,223.23126 c 0.7967,6.37337 0.19631,5.79607 0.19631,5.79607 0,0 -14.34392,-11.29963 -22.89563,-14.64026 -8.54784,-3.34063 -12.86988,-8.54785 -21.61785,-18.08095 -3.71395,-4.04878 -7.55492,-5.95387 -10.745461,-6.80442 -0.484929,-0.127 -0.692756,0.58885 -0.219374,0.75434 2.986565,1.04683 6.434965,3.03274 9.394575,6.77362 6.93527,8.76723 11.19187,13.48182 13.68194,15.32148 0.008,0.004 0.0115,0.008 0.0154,0.0116 l 2.14369,1.81271 c 0.254,0.21552 0.14239,0.62732 -0.18475,0.68891 l -2.27838,0.40795 c -0.26172,0.05 -0.40411,0.34254 -0.27325,0.5773 l 1.73572,3.1251 c 0.13856,0.24632 -0.0231,0.55421 -0.30403,0.58115 -1.08147,0.10391 -3.27904,0.32713 -3.40221,0.40026 -0.13086,0.0808 0.2925,1.63567 0.46183,2.22837 0.0385,0.1424 0.15011,0.24631 0.2925,0.2771 1.55486,0.32328 10.49144,2.20527 12.2849,2.8326 1.96281,0.68891 13.67809,13.65886 20.30546,17.81925 6.94683,4.35667 13.49722,5.20722 19.06621,4.91472 7.81278,-0.41565 8.57481,-5.70754 8.66717,-7.05072 0.0116,-0.15395 -0.023,-0.53111 -0.0539,-0.68121 -0.31172,-1.42785 -1.99358,-9.98725 2.42466,-13.23166 1.11996,-0.82746 1.89355,-1.58179 2.41696,-2.2553 1.2585,-1.62029 0.49647,-3.99106 -1.45863,-4.61454 -3.24827,-1.03528 -5.54593,0.61579 -6.56581,1.60104 -0.24247,0.23477 -0.65042,0.0731 -0.6658,-0.26171 -0.23864,-4.9763 2.74407,-9.78326 4.5029,-15.99113 1.71649,-6.04623 -3.28674,-9.52541 -4.11035,-10.04882 -0.0731,-0.0462 -0.127,-0.11546 -0.1578,-0.19628 -0.20012,-0.56576 -1.17384,-2.8557 -3.75628,-2.8557 -2.94807,0 -3.88715,5.19567 -4.35667,3.27519 -0.32714,-1.34317 -1.3355,-1.8204 -1.47403,-1.8358 0,0 -0.916,-0.65427 -3.39068,1.26236 -2.65555,2.05903 -7.51639,7.35477 -8.99044,12.8083 -1.47402,5.45354 -0.98141,12.91992 -0.68891,15.27914"
       style="fill:#120c13;fill-opacity:1;fill-rule:nonzero;stroke:none;stroke-width:0.0352777"
       id="path680" />
    <path
       d="m 125.59101,214.71421 c 0,0 9.30219,2.94806 13.75506,6.02698 4.45674,3.07892 16.21436,11.92311 16.21436,11.92311 0,0 2.84802,1.5741 2.5863,-3.1097 -0.2617,-4.68381 -1.43939,-11.8269 -1.11225,-15.16753 0.32714,-3.34063 0.78511,-11.92312 10.08729,-18.70058 0,0 2.09753,-1.27776 1.93203,5.56514 -0.16164,6.84675 -3.7986,11.10335 -3.7986,11.10335 0,0 -0.75436,4.94937 0.36175,14.28234 0,0 -0.29634,-11.79226 0.61964,-14.01678 0,0 4.58759,-5.14565 4.16039,-13.62807 0,0 2.81722,-4.71459 3.99875,-3.83325 1.17769,0.88519 1.89738,2.06672 1.73574,6.28869 -0.1655,4.22582 -2.52472,8.35542 -2.52472,8.35542 0,0 -4.22581,6.02698 -1.93202,17.29198 0,0 -0.45799,-8.417 1.80116,-12.51196 2.26302,-4.09496 6.06165,-8.28614 5.20724,-15.2291 0,0 0.78897,-1.01605 1.08147,1.47403 0.29635,2.49007 0.88518,5.50356 -2.5863,11.16878 -3.47149,5.66521 -2.16294,13.20086 -2.16294,13.20086 0,0 1.31239,4.61839 2.59016,6.48497 0,0 0.71969,-10.35286 6.05776,-9.04047 0,0 0.91599,0.22707 -0.78512,1.60489 -1.70496,1.37396 -3.40606,5.24186 -3.30984,8.74413 0.10006,3.50611 1.4086,10.28744 -1.50483,12.21946 -2.91727,1.93202 -8.1245,1.24311 -8.1245,1.24311 0,0 -9.10591,-0.88519 -15.75253,-5.92692 -6.65045,-5.04557 -15.56008,-12.5466 -15.56008,-12.5466 0,0 -3.27518,-3.83325 -5.20721,-4.2566 -1.93204,-0.4272 -13.10081,-3.40605 -13.10081,-3.40605 0,0 -0.33099,-0.39642 0.52342,-0.49263 0.85055,-0.10007 3.40604,-0.32714 3.40604,-0.32714 l -2.29379,-4.1296 3.63698,-0.65426"
       style="fill:#f3c7a3;fill-opacity:1;fill-rule:nonzero;stroke:none;stroke-width:0.0352777"
       id="path682" />
    <path
       d="m 159.77086,240.18072 c 14.89428,6.52345 18.27725,1.1315 18.27725,1.1315 -2.40925,6.53501 -11.8423,3.87944 -17.63837,2.20912 -5.79992,-1.67031 -24.96235,-19.35486 -26.08999,-20.24005 -1.13152,-0.88518 -12.57739,-3.49072 -12.57739,-3.49072 0,0 9.33297,-1.32393 13.80511,1.37782 4.47213,2.70175 17.49211,16.06426 24.22339,19.01233"
       style="fill:#ebac92;fill-opacity:1;fill-rule:nonzero;stroke:none;stroke-width:0.0352777"
       id="path684" />
    <path
       d="m 170.6279,226.03308 c -5.25726,-9.33682 -1.42399,-14.54404 1.17769,-19.01618 2.60552,-4.46828 2.40925,-10.9571 2.40925,-10.9571 0,0 1.81657,-0.78512 1.22772,7.56644 0,0 -0.78512,3.78323 -3.24441,8.05908 -2.45544,4.27585 -1.57025,14.34776 -1.57025,14.34776"
       style="fill:#ebac92;fill-opacity:1;fill-rule:nonzero;stroke:none;stroke-width:0.0352777"
       id="path686" />
    <path
       d="m 175.3425,214.58335 c -3.59463,8.99045 0.88519,15.62552 0.88519,15.62552 0,0 -0.88519,-1.27776 -2.70174,-3.92948 -1.81658,-2.65556 -1.37397,-9.82945 2.45543,-14.89042 3.83325,-5.05713 3.24441,-10.66076 3.24441,-10.66076 0,0 1.62028,4.61839 -2.65171,11.3997 0,0 -0.93522,1.72035 -1.23158,2.45544"
       style="fill:#ebac92;fill-opacity:1;fill-rule:nonzero;stroke:none;stroke-width:0.0352777"
       id="path688" />
    <path
       d="m 167.6298,196.60246 c 0,0 2.7518,6.23866 -2.20913,14.14764 0,0 -1.18152,0.10006 -0.98524,7.22391 0.19627,7.12385 0.39255,9.09051 0.39255,9.09051 0,0 -5.84609,-4.76848 -4.46826,-13.75892 0,0 0,-1.62028 3.73318,-6.77747 3.73318,-5.16104 2.80182,-9.63317 2.80182,-9.63317 0,0 0.24245,-0.88134 0.73508,-0.2925"
       style="fill:#ebac92;fill-opacity:1;fill-rule:nonzero;stroke:none;stroke-width:0.0352777"
       id="path690" />
    <path
       d="m 118.53259,123.6086 c -3.11357,0.7043 -11.63062,-4.86392 -11.63062,-4.86392 0,0 5.64981,5.56822 11.67679,5.53551 l -0.0462,-0.67159"
       style="fill:#0b0a0b;fill-opacity:1;fill-rule:nonzero;stroke:none;stroke-width:0.0352777"
       id="path692" />
    <path
       d="M 73.999845,221.8573 C 56.249876,217.26971 58.73995,196.30612 58.73995,196.30612 c 0,0 5.696001,22.40683 22.337561,20.96359 16.637708,-1.4394 21.814159,-4.7146 32.621179,0.65427 0,0 -7.72809,-1.01605 -15.490844,1.27775 -7.762725,2.29379 -9.663957,4.32588 -24.073299,2.721 l -0.134702,-0.0654"
       style="fill:#2d63b8;fill-opacity:1;fill-rule:nonzero;stroke:none;stroke-width:0.0352777"
       id="path694" />
    <path
       d="m 121.49605,212.35498 c -6.02698,-4.12575 -7.8628,-10.74158 -15.65631,-18.0771 -7.797386,-7.33938 -19.785928,-1.8358 -19.785928,-1.8358 0,0 13.562639,-0.7197 17.950118,3.92946 4.39132,4.65302 11.3997,15.46002 17.2304,16.05272 l 0.26172,-0.0693"
       style="fill:#6dace2;fill-opacity:1;fill-rule:nonzero;stroke:none;stroke-width:0.0352777"
       id="path696" />
    <path
       d="m 117.95915,124.44376 c 0,0 1.5048,15.06708 7.92436,30.72376 l 6.88139,14.41358 c 0,0 5.17256,11.19957 7.00839,23.90781 1.83194,12.70824 -11.92312,18.86607 -11.92312,18.86607 l -1.30855,-0.91598 c 0,0 12.51196,-7.27009 7.72808,-22.27213 -4.78387,-15.00203 -10.61071,-27.18685 -11.53054,-29.54608 -0.91597,-2.35537 -3.01349,-10.15235 -3.01349,-10.15235 -4.38746,-14.34661 -2.09366,-25.02468 -2.09366,-25.02468"
       style="fill:#2d63b8;fill-opacity:1;fill-rule:nonzero;stroke:none;stroke-width:0.0352777"
       id="path698" />
    <path
       d="m 159.75161,176.35857 c -1.01603,5.34192 -10.18352,8.90962 -13.39715,10.15659 -3.20976,1.24311 -3.86404,3.07891 -3.86404,3.07891 l 0.1655,1.37397 c 0,0 -0.49264,-2.62093 5.79606,-4.19118 6.2887,-1.5741 10.18738,-4.98015 10.18738,-4.98015 0,0 2.81721,-3.07892 3.37527,-6.84675 0.55419,-3.76398 -3.99874,-5.49971 -3.99874,-5.49971 -8.77877,-0.65813 -17.29199,12.31567 -17.29199,12.31567 l 0.52342,1.83196 c 0,0 6.25405,-9.20212 13.33172,-11.49592 7.07381,-2.29379 5.17257,4.25661 5.17257,4.25661"
       style="fill:#0c0c0c;fill-opacity:1;fill-rule:nonzero;stroke:none;stroke-width:0.0352777"
       id="path700" />
    <path
       d="m 34.108599,204.6269 c 0,0 1.504819,14.74032 7.924368,14.28233 0,0 0.981405,0.52341 3.733189,-8.25535 2.751784,-8.77877 9.563893,-12.70824 9.563893,-12.70824 l -0.06543,-1.31239 c 0,0 -5.238011,2.2938 -8.31693,7.99365 -3.07892,5.69984 -5.634422,11.79226 -5.634422,11.79226 0,0 -5.045578,-2.62093 -4.653018,-13.6935 0,0 8.647915,-9.23675 18.408088,-9.1059 v -1.11226 c 0,0 -6.157839,-1.83581 -16.572281,5.56899 0,0 -6.550401,4.84545 -8.451633,7.33553 0,0 -3.406055,-9.76017 2.293794,-16.63771 5.699849,-6.87754 13.36251,-6.09241 13.36251,-6.09241 0,0 5.699848,-0.26171 9.433037,3.40605 v -1.30854 c 0,0 -5.565146,-4.65301 -11.857687,-3.93332 -6.288691,0.72355 -11.003287,4.71845 -11.003287,4.71845 l -1.443243,1.57024 c 0,0 -1.112259,0.32714 -1.046832,-0.52341 0.06542,-0.85055 3.929469,-14.74032 17.622963,-11.92311 0,0 1.308541,4.52216 8.120649,6.61582 l 2.293794,0.8544 0.523417,-1.70495 c 0,0 -6.812108,-1.96281 -8.77492,-6.22326 -1.966659,-4.25661 -11.33427,-1.17769 -11.33427,-1.17769 0,0 -8.713343,3.86404 -10.614575,12.25025 0,0 -1.177687,4.19117 1.443244,4.38746 0,0 -2.817211,5.37271 -2.424649,10.48372 0.392563,5.10716 0.85055,8.05522 3.864042,7.79351 0,0 1.377817,-0.0654 3.406057,-3.07891 l 0.20013,-0.26171"
       style="fill:#0d0a0a;fill-opacity:1;fill-rule:nonzero;stroke:none;stroke-width:0.0352777"
       id="path702" />
    <path
       d="m 134.95862,152.67822 c 14.34391,-17.5891 5.66372,-5.86324 5.66372,-5.86324 0,0 -0.11651,2.09506 2.40228,-6.0249 1.11377,-3.59054 4.21477,-20.70804 5.13637,-22.96818 1.08244,-2.65452 3.31388,3.94051 3.56038,4.90562 1.76368,6.90617 -2.13046,17.37112 -8.30468,32.09929 0,0 -5.31372,-4.01558 -7.47666,-2.73821 l -0.98141,0.58962"
       style="fill:#6dace2;fill-opacity:1;fill-rule:nonzero;stroke:none;stroke-width:0.0352777"
       id="path704"
       sodipodi:nodetypes="ccsssccc" />
    <path
       d="m 142.49811,167.02559 c 0,0 2.70177,-6.75823 10.17199,-12.4065 7.46639,-5.6502 7.73964,-6.21518 9.30989,-5.96964 1.5741,0.24554 -3.16744,5.74834 -3.16744,5.74834 0,0 -1.98976,-0.31943 -3.90637,0.78628 -1.91663,1.10533 -7.6165,5.67599 -12.11171,11.6183 l -0.29636,0.22322"
       style="fill:#6dace2;fill-opacity:1;fill-rule:nonzero;stroke:none;stroke-width:0.0352777"
       id="path706" />
    <path
       d="m 141.40895,180.48816 c 0,0 2.59016,-5.99619 8.1245,-10.67999 5.53437,-4.68381 11.20343,-9.13669 11.53057,-7.82815 0.32711,1.31238 -1.77038,3.73318 -1.77038,3.73318 l -2.68636,3.01349 c 0,0 -1.57027,-0.13085 -4.02954,1.40861 -2.45543,1.53946 -7.56261,5.50357 -11.00329,10.09116"
       style="fill:#6dace2;fill-opacity:1;fill-rule:nonzero;stroke:none;stroke-width:0.0352777"
       id="path708" />
    <path
       d="m 141.57445,184.8102 c 0,0 13.75506,-10.47987 17.13033,-9.43304 3.37526,1.04684 -7.46637,8.15529 -7.46637,8.15529 0,0 -7.92822,3.40605 -8.77877,5.20723 0,0 -0.68891,-3.37143 -0.88519,-3.92948"
       style="fill:#6dace2;fill-opacity:1;fill-rule:nonzero;stroke:none;stroke-width:0.0352777"
       id="path710" />
    <path
       d="m 30.56784,185.76082 c 0,0 3.867894,-5.569 9.367613,-6.28869 5.503568,-0.7197 10.418292,-0.19628 15.394596,2.42464 0,0 -3.471482,-0.32713 -7.728088,-0.78897 -4.256607,-0.45799 -7.928216,-1.04683 -17.034121,4.65302"
       style="fill:#6dace2;fill-opacity:1;fill-rule:nonzero;stroke:none;stroke-width:0.0352777"
       id="path712" />
    <path
       d="m 31.618522,201.48255 c 0,0 4.976304,-13.82435 23.515244,-10.74543 l -0.06543,0.52727 c 0,0 -14.736477,-0.32714 -23.449817,10.21816"
       style="fill:#6dace2;fill-opacity:1;fill-rule:nonzero;stroke:none;stroke-width:0.0352777"
       id="path714" />
    <path
       d="m 40.920707,212.81682 c 0,0 -1.574099,-13.62807 13.951352,-19.06621 l 0.130855,1.18154 c 0,0 -10.414445,5.04173 -13.885927,17.16112 l -0.19628,0.72355"
       style="fill:#6dace2;fill-opacity:1;fill-rule:nonzero;stroke:none;stroke-width:0.0352777"
       id="path716" />
    <path
       d="m 160.14419,154.70877 1.8358,1.04837 c 1.70494,-0.98257 2.88263,-3.47187 2.88263,-3.47187 2.55552,-9.04048 -4.65301,-10.35056 -4.65301,-10.35056 0,0 -5.43429,-1.3755 -15.12903,9.85909 -9.6986,11.23305 -3.20979,17.85273 -3.20979,17.85273 0,0 -3.0058,-6.06163 0.16166,-10.89938 3.16743,-4.84083 11.08024,-14.83885 17.71146,-14.49517 0,0 3.31755,0.48531 3.39066,4.32358 0.0731,3.78322 -2.99038,6.13321 -2.99038,6.13321"
       style="fill:#0c0c0c;fill-opacity:1;fill-rule:nonzero;stroke:none;stroke-width:0.0352777"
       id="path724" />
    <path
       d="m 68.927324,199.58132 2.82106,-2.07058 c 16.318273,-19.86673 8.06677,-41.68433 8.06677,-41.68433 0,0 19.147027,6.91564 15.987287,18.23452 -3.155892,11.32272 -2.413103,21.66019 -24.054057,23.44981"
       style="fill:#578dd1;fill-opacity:1;fill-rule:nonzero;stroke:none;stroke-width:0.0352777"
       id="path718"
       sodipodi:nodetypes="ccccc" />
    <path
       d="m 81.993488,155.9207 c 0,0 4.456736,-1.83388 9.663959,-2.06326 5.20722,-0.22938 9.005843,0 13.266323,-1.24465 7.53565,-2.20297 4.51831,-13.95328 4.51831,-13.95328 C 106.75572,118.74468 84.025575,108.26327 84.025575,108.26327 63.192837,97.978508 64.174244,75.377698 64.174244,75.377698 c 0.8544,-24.82801 19.947547,-33.34392 19.947547,-33.34392 15.721732,-9.17133 27.906579,-1.86697 27.906579,-1.86697 1.4086,0.0981 3.14435,0.52419 3.14435,0.52419 l -0.16164,-0.32792 c 0,0 -14.64029,-9.92452 -33.017592,0.98294 -18.37345,10.90708 -19.651201,26.23625 -19.651201,26.23625 0,0 -5.699849,27.12066 16.310574,40.877282 22.010429,13.75699 20.043764,13.65885 25.154789,23.09189 5.11101,9.43342 3.64468,17.23541 0.36177,18.53895 -2.22837,0.8848 -10.352881,1.04837 -10.352881,1.04837 -7.366315,0.0981 -10.841646,1.76884 -10.841646,1.76884 l -3.240561,1.53946 2.259156,1.47364"
       style="fill:#171114;fill-opacity:1;fill-rule:nonzero;stroke:none;stroke-width:0.0352777"
       id="path726" />
    <path
       d="m 90.379694,72.364218 c -8.778768,-12.44654 -0.654271,-20.17654 -0.654271,-20.17654 0,0 -6.569642,10.35017 3.125103,20.04568 l -2.470832,0.13086"
       style="fill:#ebac92;fill-opacity:1;fill-rule:nonzero;stroke:none;stroke-width:0.0352777"
       id="path728" />
    <path
       d="m 87.135283,59.508178 c 0,0 1.539461,-6.96028 8.124498,-3.61926 6.585049,3.34062 5.649819,13.11812 5.649819,13.11812 0,0 -0.0231,4.38092 -3.094315,4.78233 -2.505471,0.32752 -7.516411,-3.65237 -9.040478,-6.99338 -1.62028,-3.55 -1.639524,-7.28781 -1.639524,-7.28781"
       style="fill:#252121;fill-opacity:1;fill-rule:nonzero;stroke:none;stroke-width:0.0352777"
       id="path730" />
    <path
       d="m 97.765253,73.936388 c 4.387467,-2.35846 2.848007,-10.05575 2.848007,-10.05575 0,0 -2.062883,-7.23853 -7.170042,-8.51592 -5.111006,-1.27735 -6.357968,4.29088 -6.357968,4.29088 0,0 -0.946766,-9.59699 8.093709,-8.94197 9.040501,0.65505 9.367641,14.64104 9.367641,14.64104 0,0 0.39256,8.94195 -6.06165,8.97466 l -0.719697,-0.39294"
       style="fill:#ffffff;fill-opacity:1;fill-rule:nonzero;stroke:none;stroke-width:0.0352777"
       id="path732" />
    <path
       d="m 98.877513,74.427858 c 8.647937,-2.29264 4.783887,-15.00165 4.783887,-15.00165 0,0 -3.667781,-9.62971 -10.087327,-8.81072 -6.423396,0.81861 -6.619676,8.94197 -6.619676,8.94197 0,0 -0.915979,-8.84383 7.304735,-9.49885 0,0 7.027638,-0.35947 10.468348,10.0819 0.0115,0.0258 0.0154,0.0508 0.0231,0.0778 0.13856,0.79052 2.27841,13.45218 -6.003914,14.34083"
       style="fill:#080808;fill-opacity:1;fill-rule:nonzero;stroke:none;stroke-width:0.0352777"
       id="path734" />
    <path
       d="m 87.08525,59.655598 c 0,0 -0.865944,12.18481 10.730035,14.13377"
       style="fill:#252121;fill-opacity:1;fill-rule:nonzero;stroke:none;stroke-width:0.0352777"
       id="path736" />
    <path
       d="m 90.164169,58.083408 c 0,0 5.438142,-3.20977 8.255353,6.64894 0,0 1.539458,9.36799 -5.534357,6.58388 0,0 -5.468931,-2.65326 -4.487525,-10.28475 0,0 0.392562,-2.2603 1.766529,-2.94807"
       style="fill:#201c1c;fill-opacity:1;fill-rule:nonzero;stroke:none;stroke-width:0.0352777"
       id="path738" />
    <path
       d="m 94.782549,60.883698 c 0,1.58294 -1.216173,2.86608 -2.717145,2.86608 -1.500975,0 -2.717148,-1.28314 -2.717148,-2.86608 0,-1.58258 1.216173,-2.8657 2.717148,-2.8657 1.500972,0 2.717145,1.28312 2.717145,2.8657"
       style="fill:#ffffff;fill-opacity:1;fill-rule:nonzero;stroke:none;stroke-width:0.0352777"
       id="path740" />
    <path
       d="m 94.620906,66.108228 c 0,0.70546 -0.542659,1.27737 -1.212324,1.27737 -0.669667,0 -1.212326,-0.57191 -1.212326,-1.27737 0,-0.70584 0.542659,-1.27774 1.212326,-1.27774 0.669665,0 1.212324,0.5719 1.212324,1.27774"
       style="fill:#ffffff;fill-opacity:1;fill-rule:nonzero;stroke:none;stroke-width:0.0352777"
       id="path742" />
    <path
       d="m 87.28538,73.763968 c 0,0 3.987202,-4.22005 12.250249,1.23696 0,0 -3.448387,-2.58284 -12.250249,-1.23696"
       style="fill:#100c0b;fill-opacity:1;fill-rule:nonzero;stroke:none;stroke-width:0.0352777"
       id="path744" />
    <path
       d="m 118.54798,41.640438 c 0,0 -20.440198,-7.66419 -35.176675,8.84383 0,0 -14.84039,16.60653 -1.96666,37.83144 12.13479,20.009902 29.411395,27.350052 29.411395,27.350052 -16.703155,-8.74567 -27.644865,-26.760442 -27.644865,-26.760442 -12.577385,-21.716 1.208476,-37.01939 1.208476,-37.01939 14.736477,-16.50799 35.176689,-8.84341 35.176689,-8.84341 l -1.00836,-1.40208"
       style="fill:#070809;fill-opacity:1;fill-rule:nonzero;stroke:none;stroke-width:0.0352777"
       id="path746" />
    <g
       id="g1059"
       style="stroke-width:1.02164"
       transform="matrix(0.03425868,0,0,-0.03480448,-3.0863168,521.4704)">
      <path
         d="m 2720.6661,9650.9 c 0,0 54.2904,-85.1688 59.1092,-139.4101 4.7508,-54.0684 46.9753,-191.5426 104.8677,-214.828 57.9934,-23.4416 213.7503,-51.3843 312.9408,89.6392 0,0 48.133,37.1472 13.639,180.2474 0,0 -76.5531,171.5071 13.8002,215.9711 90.2689,44.6285 255.7006,90.7416 263.2034,110.5848 0,0 160.8185,-280.4849 360.6618,-211.6577 0,0 110.0506,43.9704 110.8159,170.0441 0.376,52.335 -49.5566,169.0292 -57.4853,184.4912 -7.8444,15.297 -77.0135,206.243 -77.0135,206.243 180.5148,99.632 349.1686,43.826 423.7912,105.152 74.6226,61.325 132.1233,64.855 157.9885,145.426 25.9496,80.406 1.0395,173.786 -14.166,213.768 -15.1052,39.826 -69.0664,82.992 -69.0664,82.992 -105.7892,95.946 -232.117,135.448 -310.2124,132.585 -78.0795,-2.853 -136.998,46.496 -136.998,46.496 0,0 -85.5988,115.232 -188.5936,78.203 -103.0962,-36.872 -135.8969,-128.062 -147.9756,-187.23 -12.095,-59.175 32.7107,-174.136 56.5199,-230.896 23.8092,-56.759 -34.589,-60.115 -77.2561,-80.334 -42.7519,-20.054 -253.2799,-2.54 -349.8182,9.861 -96.5215,12.409 -191.887,-18.838 -220.557,-31.878 -28.7539,-12.876 -153.144,-28.884 -153.144,-28.884 0,0 -228.6924,-64.301 -397.3665,-155.992 -168.5901,-91.855 -320.0639,-344.6543 -320.0639,-344.6543 0,0 -91.4013,-149.2859 -91.8523,-375.951 -0.5351,-226.5015 204.5441,-398.8726 204.5441,-398.8726 189.2346,-134.5869 283.3454,-118.1102 421.5538,-77.3581 138.2248,40.7605 196.1084,224.3771 180.8116,274.9071 -15.3131,50.5216 -21.462,103.873 -25.359,139.0596 -3.8126,35.0223 -139.6634,244.7644 -139.6634,244.7644"
         style="fill:#4db738;fill-opacity:1;fill-rule:nonzero;stroke:none;stroke-width:1.8885"
         id="path310"
         sodipodi:nodetypes="cccccccccscscccccccscccccccccccc"
         inkscape:export-xdpi="96"
         inkscape:export-ydpi="96" />
    </g>
    <path
       d="m 90.120109,185.57582 c 0,0 1.859919,2.96426 2.025005,4.85209 0.162754,1.88183 1.609311,6.66655 3.592628,7.47698 1.986777,0.81588 7.322818,1.78841 10.720968,-3.11984 0,0 1.64897,-1.29289 0.46725,-6.27342 0,0 -2.85369,-5.61812 0.2417,-7.16566 3.09249,-1.55328 8.99104,-3.50932 9.24808,-4.19995 0,0 5.50943,9.76213 12.3558,7.36664 0,0 3.77018,-1.53037 3.7964,-5.9183 0.0129,-1.82149 -1.69775,-5.88297 -1.96937,-6.42112 -0.26874,-0.5324 -2.63838,-7.17817 -2.63838,-7.17817 6.18419,-3.46764 11.22113,-1.32305 13.7776,-3.45747 2.55647,-2.13438 5.2673,-2.45955 6.1534,-5.26378 0.889,-2.79849 0.0356,-6.04853 -0.48531,-7.44008 -0.51748,-1.38613 -2.36612,-2.8885 -2.36612,-2.8885 -3.6242,-3.33935 -7.95202,-4.7142 -10.62747,-4.61455 -2.6749,0.0993 -4.69337,-1.61827 -4.69337,-1.61827 0,0 -2.9325,-4.01059 -6.46096,-2.72181 -3.53194,1.28331 -4.65565,4.45713 -5.06945,6.51644 -0.41436,2.05955 1.12062,6.06072 1.93629,8.03621 0.81568,1.97547 -1.18497,2.09228 -2.64669,2.79599 -1.46462,0.69797 -8.67703,0.0884 -11.98431,-0.34321 -3.30671,-0.43189 -6.573817,0.65565 -7.556015,1.1095 -0.98507,0.44814 -5.246509,1.00529 -5.246509,1.00529 0,0 -7.8347,2.23797 -13.613251,5.42923 -5.775674,3.19696 -10.964966,11.99551 -10.964966,11.99551 0,0 -3.131288,5.19582 -3.146739,13.08478 -0.01833,7.88327 7.00741,13.88255 7.00741,13.88255 6.482927,4.68423 9.707038,4.11077 14.441875,2.69241 4.735401,-1.41865 6.718416,-7.80933 6.194367,-9.568 -0.524607,-1.75837 -0.73526,-3.61525 -0.868767,-4.8399 -0.06689,-0.62421 -1.409582,-3.09657 -2.691967,-5.25117 -0.174081,-0.29249 -0.518178,-0.81911 -0.67939,-1.08421 -0.2678,-0.44039 -0.237792,-0.29734 -0.466137,-0.66625 -0.598992,-0.9677 -1.019419,-1.53643 -1.019419,-1.53643"
       style="fill:none;stroke:#231f20;stroke-width:0.489081;stroke-linecap:butt;stroke-linejoin:miter;stroke-miterlimit:10;stroke-dasharray:none;stroke-opacity:1"
       id="path312"
       sodipodi:nodetypes="cccccccccscscccccccscccccccccccsssc"
       inkscape:export-xdpi="96"
       inkscape:export-ydpi="96" />
    <path
       d="m 86.963884,181.00218 c -2.418925,-3.35267 -4.909328,-2.70597 -4.909328,-2.70597 0,0 -4.693303,0.42064 -6.169611,4.6964 -1.475743,4.27547 1.237826,8.03138 1.237826,8.03138 4.964392,4.97646 7.067077,1.76257 7.454354,0.72934 0.38728,-1.03324 -4.779905,-4.42909 -4.779905,-4.42909 0,0 -3.719852,-3.05088 -1.175052,-5.38889 2.541909,-2.34373 8.454521,-0.52922 8.454521,-0.52922 l 0.808889,1.24155 c -0.911216,-0.54474 -7.368963,-2.71876 -9.366426,-0.19594 -2.000357,2.51709 1.932888,5.26883 5.101613,7.58739 3.169285,2.31826 -0.975543,3.82689 -0.975543,3.82689 -9.368854,-0.38265 -7.0821,-10.43097 -7.0821,-10.43097 0,0 1.254343,-4.77472 6.165808,-5.24393 4.91145,-0.46924 5.721282,3.29515 5.721282,3.29515 l -0.486328,-0.48409"
       style="fill:#ffffff;fill-opacity:1;fill-rule:nonzero;stroke:none;stroke-width:0.0652109"
       id="path434"
       inkscape:export-xdpi="96"
       inkscape:export-ydpi="96" />
    <g
       id="g1097"
       transform="matrix(0.03848649,0,0,-0.03848649,-217.53253,486.79428)"
       style="stroke-width:0.916627">
      <path
         d="m 7741.2282,7879.0958 c 0,0 65.2,-12.3 141.1,-123.7 76,-111.4 54.7,197.5 54.7,197.5 28.3,12 65.2,124.6 65.2,124.6 82.6,299.6 -380.1,627.94 -380.1,627.94 0,0 -120.8,85.2 -221.2,-15.33 -100.5,-100.53 -8.2,-235.81 -8.2,-235.81 l 8.8,-17.2 c 0,0 -81.8,6.8 -110.8,-63.9 -29,-70.8 -53.6,-145.8 -30.5,-179.6 0,0 -131.1,-15.1 -134,-177.4 -3,-162.2 256.1,-266.7 256.1,-266.7 0,0 382.6,-93.1 434.7,-239 0,0 104.5,176.9 -75.8,368.6"
         style="fill:#578dd1;fill-opacity:1;fill-rule:nonzero;stroke:none;stroke-width:0.916627"
         id="path956" />
      <path
         d="m 7361.9282,8456.6958 c 0,0 -87,-6.9 -120.7,-88.9 -33.7,-82 -24.9,-159 -24.9,-159 0,0 55.4,-174.2 343.4,-272.8 287.9,-98.7 259.8,-96 331,-200.4 0,0 20.1,92.4 -183.6,182.9 -203.8,90.5 -390.9,172.7 -433.2,334 0,0 -13.3,176.6 141.7,144.7 155.1,-32 309.5,-191.1 309.5,-191.1 0,0 287.5,-197.3 190.2,-477.7 0,0 153.1,204.9 -117.1,479.5 -270.3,274.6 -436.3,248.8 -436.3,248.8"
         style="fill:#231f20;fill-opacity:1;fill-rule:nonzero;stroke:none;stroke-width:0.916627"
         id="path958" />
      <path
         d="m 7815.3282,7501.6958 c -77.4,119.9 -189.1,154 -189.1,154 -288.2,70.1 -368.5,139.9 -368.5,139.9 0,0 -178.4,101.3 -159.5,256.2 19,155 118.1,157 118.1,157 l 19.5,-47.9 c 0,0 -106.4,-26.6 -85.1,-161.4 25.6,-162.1 300.9,-264 451.7,-318.5 150.8,-54.5 214.6,-170.5 214.6,-170.5 69.5,202.5 -97,366.6 -97,366.6 l 86,-39.7 c 0,0 116.3,-196.1 14.1,-337.9"
         style="fill:#231f20;fill-opacity:1;fill-rule:nonzero;stroke:none;stroke-width:0.916627"
         id="path960" />
      <path
         d="m 7207.6282,8052.7958 c 0,0 -30,-103.5 217.5,-214.4 247.6,-110.9 348.1,-211.3 348.1,-211.3 0,0 -11.9,19.5 -116.6,42.8 -104.8,23.3 -511.6,171.3 -449,382.9"
         style="fill:#6dace2;fill-opacity:1;fill-rule:nonzero;stroke:none;stroke-width:0.916627"
         id="path964" />
      <path
         d="m 7294.0282,8252.9958 c 0,0 6.3,-67 155.2,-131.6 148.9,-64.5 330.8,-156.1 399.1,-271.2 0,0 -38.1,36.6 -181.9,91.6 -143.8,54.9 -392.1,179.8 -372.4,311.2"
         style="fill:#6dace2;fill-opacity:1;fill-rule:nonzero;stroke:none;stroke-width:0.916627"
         id="path966" />
      <path
         d="m 7446.5282,8665.8758 c 0,0 19.8,-105.98 200.7,-257.98 180.9,-152 293.8,-351.8 293.8,-351.8 0,0 -210.4,233.8 -285.1,287.8 -74.7,54 -211.5,145.7 -209.4,321.98"
         style="fill:#6dace2;fill-opacity:1;fill-rule:nonzero;stroke:none;stroke-width:0.916627"
         id="path968" />
    </g>
    <path
       d="m 97.062227,172.07063 c 0,0 -1.434007,-1.16173 -3.143429,0.37234 -1.800356,1.61757 -0.646065,2.67914 -0.646065,2.67914 0,0 0.644183,1.87685 3.690455,0.232 0,0 1.150667,-0.59947 0.990219,0.40237 -0.157569,1.00753 -1.743546,1.46505 -1.743546,1.46505 0,0 -1.368834,0.64804 -1.509398,1.09004 -0.140017,0.44168 0.560799,0.51038 1.950293,-0.33641 1.389477,-0.84682 2.874097,-1.8661 1.895958,-3.32312 0,0 -0.471239,-1.29451 -2.701458,0.0481 0,0 -1.484052,1.01899 -1.858393,-0.44166 -0.376681,-1.46673 1.969545,-1.97327 2.36733,-1.79009 0.629358,0.28668 0.708034,-0.39775 0.708034,-0.39775"
       style="fill:#ffffff;fill-opacity:1;fill-rule:nonzero;stroke:none;stroke-width:0.0652109"
       id="path448"
       inkscape:export-xdpi="96"
       inkscape:export-ydpi="96" />
    <path
       d="m 100.83431,174.62434 c 0.61875,0.13312 2.46321,0.1989 3.26031,-1.82148 0.80002,-2.01463 -2.4161,-5.38579 -2.4161,-5.38579 0,0 -0.40999,-0.213 -0.47954,0.24982 -0.0661,0.46827 1.10428,1.94801 1.10428,1.94801 0,0 2.36548,2.76599 0.20849,4.01261 -2.15698,1.24665 -3.308222,-2.95441 -3.308222,-2.95441 0,0 -0.473257,-1.77792 -1.283731,-0.86402 0,0 1.262791,3.46332 2.672573,4.69546"
       style="fill:#ffffff;fill-opacity:1;fill-rule:nonzero;stroke:none;stroke-width:0.0652109"
       id="path452"
       inkscape:export-xdpi="96"
       inkscape:export-ydpi="96" />
    <path
       d="m 107.70736,165.0064 c 0,0 -1.43455,-1.16138 -3.14053,0.37812 -1.80038,1.61758 -0.64895,2.67343 -0.64895,2.67343 0,0 0.64708,1.88258 3.69044,0.23198 0,0 1.15067,-0.59947 0.99311,0.40809 -0.16044,1.0018 -1.74643,1.45935 -1.74643,1.45935 0,0 -1.36593,0.65376 -1.50652,1.09574 -0.14057,0.44195 0.55792,0.50467 1.94741,-0.34216 1.38949,-0.84676 2.87354,-1.86576 1.89597,-3.3231 0,0 -0.47124,-1.29451 -2.698,0.0536 0,0 -1.48462,1.01928 -1.8613,-0.44745 -0.37723,-1.46642 1.97245,-1.9675 2.36678,-1.78975 0.63225,0.29239 0.70802,-0.39782 0.70802,-0.39782"
       style="fill:#ffffff;fill-opacity:1;fill-rule:nonzero;stroke:none;stroke-width:0.0652109"
       id="path456"
       inkscape:export-xdpi="96"
       inkscape:export-ydpi="96" />
    <path
       d="m 112.35424,161.08885 c 0.02,-0.32132 -3.2743,1.61183 -3.82773,1.83514 -0.55055,0.22894 -0.33038,0.60591 -0.33038,0.60591 0,0 2.44697,4.90698 2.96585,4.79574 0.516,-0.11698 2.29413,-0.67461 3.74773,-2.41519 0,0 -0.0697,-0.73733 -0.54802,-0.36523 -0.4783,0.37213 -2.388,1.98883 -2.64562,1.71812 -0.25473,-0.26497 -1.01448,-1.40917 -1.01448,-1.40917 0,0 3.48035,-1.62523 3.28509,-1.89221 -0.19527,-0.26699 -0.0583,-0.8951 -1.09001,-0.29974 -1.02943,0.60139 -2.38924,1.8665 -2.75777,1.4367 -0.36564,-0.42406 -0.97879,-1.57957 -0.97879,-1.57957 0,0 3.63203,-1.86329 3.45121,-2.10167 -0.18371,-0.24411 -0.25708,-0.32883 -0.25708,-0.32883"
       style="fill:#ffffff;fill-opacity:1;fill-rule:nonzero;stroke:none;stroke-width:0.0652109"
       id="path460"
       inkscape:export-xdpi="96"
       inkscape:export-ydpi="96" />
    <path
       d="m 95.420088,196.67495 c 0,0 3.028715,2.76024 7.312362,-0.72225 4.28653,-3.47677 3.38731,-6.60894 3.38731,-6.60894 0,0 0.18144,-1.62009 0.25439,-1.74486 0.0706,-0.13079 -0.0957,1.25004 0.20796,2.66082 0.30304,1.41108 -1.2344,4.84384 -3.64589,6.18692 -2.40803,1.34851 -3.781943,3.12713 -7.663392,0.11705"
       style="fill:#92d450;fill-opacity:1;fill-rule:nonzero;stroke:none;stroke-width:0.0652109"
       id="path488"
       inkscape:export-xdpi="96"
       inkscape:export-ydpi="96" />
    <path
       d="m 95.420088,196.67495 c 0,0 3.028715,2.76024 7.312362,-0.72225 4.28653,-3.47677 3.38731,-6.60894 3.38731,-6.60894 0,0 -0.65708,-2.2027 -0.58413,-2.32747 0.0706,-0.13079 0.74287,1.83265 1.04648,3.24343 0.30304,1.41108 -1.2344,4.84384 -3.64589,6.18692 -2.40803,1.34851 -3.781943,3.12713 -7.663392,0.11705"
       style="fill:none;stroke:#92d450;stroke-width:0.163027;stroke-linecap:round;stroke-linejoin:round;stroke-miterlimit:10;stroke-dasharray:none;stroke-opacity:1"
       id="path490"
       sodipodi:nodetypes="ccccccc"
       inkscape:export-xdpi="96"
       inkscape:export-ydpi="96" />
    <path
       d="m 119.11913,142.71132 c 0,0 -0.81755,2.58054 1.08144,4.30249 1.89612,1.71628 2.94883,3.32244 3.20304,4.66498 0.25654,1.34854 2.48509,4.92328 2.48509,4.92328 0,0 1.56273,2.13581 1.59185,2.55443 0.0297,0.41835 0.34726,-1.35222 0.56174,-1.76761 0.21159,-0.42113 2.27097,-1.73988 2.27097,-1.73988 0,0 -1.9799,1.95699 -3.0737,1.10971 -1.09382,-0.84728 -3.21121,-2.88209 -3.74506,-5.61894 -0.53329,-2.73713 -3.4923,-4.76007 -3.4923,-4.76007 0,0 -1.32246,-1.89949 -0.88307,-3.66839"
       style="fill:#92d450;fill-opacity:1;fill-rule:nonzero;stroke:none;stroke-width:0.0652109"
       id="path494"
       inkscape:export-xdpi="96"
       inkscape:export-ydpi="96" />
    <path
       d="m 119.11913,142.71132 c 0,0 -0.81755,2.58054 1.08144,4.30249 1.89612,1.71628 2.94883,3.32244 3.20304,4.66498 0.25654,1.34854 2.48509,4.92328 2.48509,4.92328 0,0 1.56273,2.13581 1.59185,2.55443 0.0297,0.41835 0.34726,-1.35222 0.56174,-1.76761 0.21159,-0.42113 2.27097,-1.73988 2.27097,-1.73988 0,0 -1.9799,1.95699 -3.0737,1.10971 -1.09382,-0.84728 -3.21121,-2.88209 -3.74506,-5.61894 -0.53329,-2.73713 -3.4923,-4.76007 -3.4923,-4.76007 0,0 -1.32246,-1.89949 -0.88307,-3.66839 z"
       style="fill:none;stroke:#92d450;stroke-width:0.163027;stroke-linecap:round;stroke-linejoin:round;stroke-miterlimit:10;stroke-dasharray:none;stroke-opacity:1"
       id="path496"
       inkscape:export-xdpi="96"
       inkscape:export-ydpi="96" />
    <path
       d="m 146.47382,150.95333 c 0.11458,4.30737 -9.68061,3.38042 -9.99411,3.24009 -0.31585,-0.14636 -1.73244,-2.11246 -1.73244,-2.11246 0,0 4.76874,2.1285 8.58205,0.3226 3.81563,-1.79984 2.16608,-5.3075 2.16608,-5.3075 0,0 0.72203,-0.13035 0.91514,2.29236 0.19311,2.42277 0.0633,1.56491 0.0633,1.56491"
       style="fill:#ffffff;fill-opacity:1;fill-rule:nonzero;stroke:none;stroke-width:0.0652109"
       id="path500"
       inkscape:export-xdpi="96"
       inkscape:export-ydpi="96" />
    <path
       d="m 146.47382,150.95333 c 0.11458,4.30737 -9.68061,3.38042 -9.99411,3.24009 -0.31585,-0.14636 -1.73244,-2.11246 -1.73244,-2.11246 0,0 4.76874,2.1285 8.58205,0.3226 3.81563,-1.79984 2.16608,-5.3075 2.16608,-5.3075 0,0 0.72203,-0.13035 0.91514,2.29236 0.19311,2.42277 0.0633,1.56491 0.0633,1.56491 z"
       style="fill:none;stroke:#231f20;stroke-width:0.489081;stroke-linecap:round;stroke-linejoin:round;stroke-miterlimit:10;stroke-dasharray:none;stroke-opacity:1"
       id="path502"
       inkscape:export-xdpi="96"
       inkscape:export-ydpi="96" />
    <path
       d="m 138.21317,145.62629 c 0,0 -0.78122,1.57108 0.1299,2.95456 0.91346,1.38953 1.59976,2.32619 3.49093,1.68795 0,0 1.88226,-1.41442 -0.6122,-3.65764 -2.49735,-2.24896 -3.00863,-0.98487 -3.00863,-0.98487 z m 3.60687,0.42737 c 3.55138,3.19648 0.87188,5.207 0.87188,5.207 -2.69053,0.91006 -3.66688,-0.42501 -4.96455,-2.39518 -1.29766,-1.97021 -0.18782,-4.21135 -0.18782,-4.21135 0,0 0.72854,-1.79667 4.28049,1.39953"
       style="fill:#ffffff;fill-opacity:1;fill-rule:nonzero;stroke:none;stroke-width:0.0652109"
       id="path504"
       inkscape:export-xdpi="96"
       inkscape:export-ydpi="96" />
    <path
       d="m 138.21317,145.62629 c 0,0 -0.78122,1.57108 0.1299,2.95456 0.91346,1.38953 1.59976,2.32619 3.49093,1.68795 0,0 1.88226,-1.41442 -0.6122,-3.65764 -2.49735,-2.24896 -3.00863,-0.98487 -3.00863,-0.98487 z m 3.60687,0.42737 c 3.55138,3.19648 0.87188,5.207 0.87188,5.207 -2.69053,0.91006 -3.66688,-0.42501 -4.96455,-2.39518 -1.29766,-1.97021 -0.18782,-4.21135 -0.18782,-4.21135 0,0 0.72854,-1.79667 4.28049,1.39953 z"
       style="fill:none;stroke:#231f20;stroke-width:0.489081;stroke-linecap:round;stroke-linejoin:round;stroke-miterlimit:10;stroke-dasharray:none;stroke-opacity:1"
       id="path506"
       inkscape:export-xdpi="96"
       inkscape:export-ydpi="96" />
    <path
       d="m 140.62228,146.81501 c 0.34143,0.49454 0.36031,1.07758 0.0454,1.30673 -0.31782,0.22338 -0.84958,0.009 -1.1939,-0.49147 -0.34143,-0.49454 -0.36088,-1.07727 -0.0431,-1.30068 0.31492,-0.22912 0.84958,-0.009 1.19157,0.48542"
       style="fill:#ffffff;fill-opacity:1;fill-rule:nonzero;stroke:none;stroke-width:0.0652109"
       id="path508"
       inkscape:export-xdpi="96"
       inkscape:export-ydpi="96" />
    <path
       d="m 140.62228,146.81501 c 0.34143,0.49454 0.36031,1.07758 0.0454,1.30673 -0.31782,0.22338 -0.84958,0.009 -1.1939,-0.49147 -0.34143,-0.49454 -0.36088,-1.07727 -0.0431,-1.30068 0.31492,-0.22912 0.84958,-0.009 1.19157,0.48542 z"
       style="fill:none;stroke:#231f20;stroke-width:0.489081;stroke-linecap:round;stroke-linejoin:round;stroke-miterlimit:10;stroke-dasharray:none;stroke-opacity:1"
       id="path510"
       inkscape:export-xdpi="96"
       inkscape:export-ydpi="96" />
    <path
       d="m 120.44681,181.09886 c 0,0 1.97993,2.84389 2.847,2.94166 0.86997,0.1035 9.3147,-1.34608 8.22837,-5.11825 -1.08633,-3.77216 -1.77583,-4.2372 -1.77583,-4.2372 0,0 2.57355,4.19758 -0.94791,6.58166 -3.518,2.38952 -5.60039,3.84314 -8.35163,-0.16787"
       style="fill:#92d450;fill-opacity:1;fill-rule:nonzero;stroke:none;stroke-width:0.0652109"
       id="path512"
       inkscape:export-xdpi="96"
       inkscape:export-ydpi="96" />
    <path
       d="m 120.44681,181.09886 c 0,0 1.97993,2.84389 2.847,2.94166 0.86997,0.1035 9.3147,-1.34608 8.22837,-5.11825 -1.08633,-3.77216 -1.77583,-4.2372 -1.77583,-4.2372 0,0 2.57355,4.19758 -0.94791,6.58166 -3.518,2.38952 -5.60039,3.84314 -8.35163,-0.16787 z"
       style="fill:none;stroke:#92d450;stroke-width:0.163027;stroke-linecap:round;stroke-linejoin:round;stroke-miterlimit:10;stroke-dasharray:none;stroke-opacity:1"
       id="path514"
       inkscape:export-xdpi="96"
       inkscape:export-ydpi="96" />
    <path
       d="m 65.398115,161.09868 c 0,0 -3.102014,-6.33642 2.570896,-10.96327 5.676757,-4.62646 16.214358,7.86895 16.214358,7.86895 0,0 12.396499,12.44268 4.248909,22.20286 0,0 4.514464,-6.94681 -0.411807,-13.6781 -4.926268,-6.73129 -13.801255,-18.51124 -19.712778,-13.68002 0,0 -3.533059,4.13152 0.06928,8.6152 l -2.978853,-0.36562"
       style="fill:#231f20;fill-opacity:1;fill-rule:nonzero;stroke:none;stroke-width:0.0352777"
       id="path962" />
  </g>
</svg>
